<svg height="682pt" viewBox="-76 -21 682 682.66669" width="682pt" xmlns="http://www.w3.org/2000/svg"><path d="m497.949219 0h-473.1875c-15.5625 0-28.179688 12.617188-28.179688 28.179688v583.640624c0 15.5625 12.617188 28.179688 28.179688 28.179688h473.1875c15.5625 0 28.179687-12.617188 28.179687-28.179688v-583.640624c0-15.5625-12.617187-28.179688-28.179687-28.179688zm-320.316407 508.746094-51.765624 71.210937c-3.445313 4.734375-8.894532 7.589844-14.746094 7.730469-.148438.003906-.292969.003906-.4375.003906-5.691406 0-11.082032-2.582031-14.652344-7.042968l-22.011719-27.488282c-6.480469-8.097656-5.171875-19.910156 2.921875-26.382812 8.09375-6.480469 19.90625-5.171875 26.378906 2.917968l1.65625 2.066407 4.984376 6.226562 37.304687-51.3125c6.09375-8.386719 17.832031-10.246093 26.21875-4.144531 8.386719 6.09375 10.242187 17.828125 4.148437 26.214844zm0-130.277344-51.765624 71.210938c-3.445313 4.734374-8.898438 7.589843-14.746094 7.726562-.148438.007812-.292969.007812-.4375.007812-5.691406 0-11.085938-2.589843-14.652344-7.042968l-22.011719-27.496094c-6.480469-8.089844-5.171875-19.902344 2.925781-26.382812 8.089844-6.476563 19.902344-5.167969 26.382813 2.925781l1.652344 2.066406 4.988281 6.226563 37.296875-51.320313c6.101563-8.382813 17.832031-10.238281 26.222656-4.144531 8.382813 6.097656 10.238281 17.835937 4.144531 26.222656zm0-130.285156-51.765624 71.214844c-3.445313 4.734374-8.898438 7.59375-14.746094 7.726562-.148438.003906-.292969.003906-.4375.003906-5.691406 0-11.085938-2.582031-14.652344-7.035156l-22.011719-27.496094c-6.480469-8.089844-5.171875-19.902344 2.925781-26.382812 8.089844-6.480469 19.902344-5.167969 26.382813 2.921875l1.652344 2.070312 4.988281 6.222657 37.296875-51.316407c6.101563-8.382812 17.832031-10.238281 26.222656-4.144531 8.382813 6.09375 10.238281 17.832031 4.144531 26.214844zm0-130.277344-51.765624 71.210938c-3.445313 4.734374-8.894532 7.59375-14.746094 7.726562-.148438.007812-.292969.007812-.4375.007812-5.691406 0-11.082032-2.585937-14.652344-7.039062l-22.011719-27.492188c-6.480469-8.09375-5.171875-19.902343 2.921875-26.382812s19.90625-5.171875 26.378906 2.921875l1.65625 2.0625 4.984376 6.230469 37.304687-51.316406c6.09375-8.382813 17.832031-10.242188 26.21875-4.148438s10.242187 17.835938 4.148437 26.21875zm267.964844 444.285156h-202.882812c-10.363282 0-18.761719-8.402344-18.761719-18.769531 0-10.359375 8.402344-18.765625 18.761719-18.765625h202.882812c10.367188 0 18.769532 8.40625 18.769532 18.765625 0 10.367187-8.402344 18.769531-18.769532 18.769531zm0-135.648437h-202.882812c-10.363282 0-18.761719-8.402344-18.761719-18.769531 0-10.359376 8.402344-18.769532 18.761719-18.769532h202.882812c10.367188 0 18.769532 8.410156 18.769532 18.769532 0 10.367187-8.402344 18.769531-18.769532 18.769531zm0-135.648438h-202.882812c-10.363282 0-18.761719-8.402343-18.761719-18.769531s8.402344-18.769531 18.761719-18.769531h202.882812c10.367188 0 18.769532 8.402343 18.769532 18.769531s-8.402344 18.769531-18.769532 18.769531zm0-135.65625h-202.882812c-10.363282 0-18.761719-8.402343-18.761719-18.761719 0-10.367187 8.402344-18.773437 18.761719-18.773437h202.882812c10.367188 0 18.769532 8.40625 18.769532 18.773437 0 10.359376-8.402344 18.761719-18.769532 18.761719zm0 0"/></svg>