<svg id="Layer_1" data-name="Layer 1" xmlns="http://www.w3.org/2000/svg" viewBox="0 0 24 24"><defs><style>.cls-1{fill:none;}</style></defs><path class="cls-1" d="M0,0H24V24H0Z"/><path d="M20.43334,3H3.56666A.56666.56666,0,0,0,3,3.56666v1.2179a.56664.56664,0,0,0,.14313.37646l7.71374,8.678A.56664.56664,0,0,1,11,14.21544v4.2179A.56666.56666,0,0,1,10.43334,19H6.56666A.56666.56666,0,0,0,6,19.56666v.86668A.56666.56666,0,0,0,6.56666,21H17.43334A.56666.56666,0,0,0,18,20.43334v-.86668A.56666.56666,0,0,0,17.43334,19H13.56666A.56666.56666,0,0,1,13,18.43334v-4.2179a.56664.56664,0,0,1,.14313-.37646l7.71374-8.678A.56664.56664,0,0,0,21,4.78456V3.56666A.56666.56666,0,0,0,20.43334,3ZM7.43,7,5.66,5H18.35L16.57,7Z"/></svg>